<svg id="visual" viewBox="0 0 900 600" width="900" height="600" xmlns="http://www.w3.org/2000/svg" xmlns:xlink="http://www.w3.org/1999/xlink" version="1.1"><g stroke-width="1" stroke-linejoin="bevel"><path d="M475 307L511 347L512 288Z" fill="#ff9b44" stroke="#ff9b44"></path><path d="M511 347L531 345L512 288Z" fill="#ff9b44" stroke="#ff9b44"></path><path d="M579 383L563 356L533 433Z" fill="#ff6f61" stroke="#ff6f61"></path><path d="M531 345L585 295L512 288Z" fill="#ff9b44" stroke="#ff9b44"></path><path d="M475 307L429 341L511 347Z" fill="#ff7b58" stroke="#ff7b58"></path><path d="M533 433L563 356L531 345Z" fill="#fea83e" stroke="#fea83e"></path><path d="M480 222L427 291L475 307Z" fill="#ff7b58" stroke="#ff7b58"></path><path d="M475 307L427 291L429 341Z" fill="#fea83e" stroke="#fea83e"></path><path d="M563 356L585 295L531 345Z" fill="#ff9b44" stroke="#ff9b44"></path><path d="M512 210L491 226L512 288Z" fill="#ff755c" stroke="#ff755c"></path><path d="M512 288L491 226L475 307Z" fill="#ff755c" stroke="#ff755c"></path><path d="M602 325L595 292L585 295Z" fill="#fcaf3c" stroke="#fcaf3c"></path><path d="M599 232L512 210L512 288Z" fill="#ffa241" stroke="#ffa241"></path><path d="M491 226L480 222L475 307Z" fill="#fea83e" stroke="#fea83e"></path><path d="M563 356L602 325L585 295Z" fill="#ff9447" stroke="#ff9447"></path><path d="M533 433L531 345L511 347Z" fill="#ff8e4b" stroke="#ff8e4b"></path><path d="M563 356L579 383L602 325Z" fill="#ff8153" stroke="#ff8153"></path><path d="M358 264L402 304L427 291Z" fill="#ff8e4b" stroke="#ff8e4b"></path><path d="M427 291L402 304L429 341Z" fill="#ff7b58" stroke="#ff7b58"></path><path d="M410 375L432 395L429 341Z" fill="#ff6f61" stroke="#ff6f61"></path><path d="M429 341L432 395L511 347Z" fill="#ff7b58" stroke="#ff7b58"></path><path d="M432 395L440 403L511 347Z" fill="#fea83e" stroke="#fea83e"></path><path d="M599 232L512 288L585 295Z" fill="#ff8e4b" stroke="#ff8e4b"></path><path d="M491 226L512 210L480 222Z" fill="#ff8e4b" stroke="#ff8e4b"></path><path d="M402 304L410 375L429 341Z" fill="#ff755c" stroke="#ff755c"></path><path d="M404 424L453 429L440 403Z" fill="#fcaf3c" stroke="#fcaf3c"></path><path d="M453 429L533 433L511 347Z" fill="#ffa241" stroke="#ffa241"></path><path d="M579 383L624 339L602 325Z" fill="#fcaf3c" stroke="#fcaf3c"></path><path d="M602 325L653 289L595 292Z" fill="#fea83e" stroke="#fea83e"></path><path d="M646 411L624 339L579 383Z" fill="#ff9b44" stroke="#ff9b44"></path><path d="M459 455L453 429L404 424Z" fill="#ff6f61" stroke="#ff6f61"></path><path d="M440 403L453 429L511 347Z" fill="#ffa241" stroke="#ffa241"></path><path d="M468 192L445 204L480 222Z" fill="#ff8153" stroke="#ff8153"></path><path d="M480 222L445 204L427 291Z" fill="#fea83e" stroke="#fea83e"></path><path d="M653 289L599 232L595 292Z" fill="#fcaf3c" stroke="#fcaf3c"></path><path d="M595 292L599 232L585 295Z" fill="#ffa241" stroke="#ffa241"></path><path d="M513 164L468 192L512 210Z" fill="#ff8153" stroke="#ff8153"></path><path d="M512 210L468 192L480 222Z" fill="#ff755c" stroke="#ff755c"></path><path d="M507 496L557 448L533 433Z" fill="#ff9447" stroke="#ff9447"></path><path d="M533 433L557 448L579 383Z" fill="#ff7b58" stroke="#ff7b58"></path><path d="M453 429L490 458L533 433Z" fill="#ff755c" stroke="#ff755c"></path><path d="M453 429L459 455L490 458Z" fill="#ffa241" stroke="#ffa241"></path><path d="M404 424L440 403L432 395Z" fill="#fcaf3c" stroke="#fcaf3c"></path><path d="M363 407L404 424L410 375Z" fill="#ff884f" stroke="#ff884f"></path><path d="M410 375L404 424L432 395Z" fill="#ff884f" stroke="#ff884f"></path><path d="M574 480L581 445L557 448Z" fill="#ffa241" stroke="#ffa241"></path><path d="M557 448L581 445L579 383Z" fill="#ff755c" stroke="#ff755c"></path><path d="M581 445L594 439L579 383Z" fill="#ff884f" stroke="#ff884f"></path><path d="M665 297L653 289L624 339Z" fill="#ff7b58" stroke="#ff7b58"></path><path d="M624 339L653 289L602 325Z" fill="#ff9b44" stroke="#ff9b44"></path><path d="M578 181L513 164L512 210Z" fill="#ff884f" stroke="#ff884f"></path><path d="M364 205L389 215L357 192Z" fill="#ff8e4b" stroke="#ff8e4b"></path><path d="M389 215L396 141L357 192Z" fill="#ff8153" stroke="#ff8153"></path><path d="M445 204L389 215L427 291Z" fill="#ff6f61" stroke="#ff6f61"></path><path d="M311 335L363 407L410 375Z" fill="#ff9447" stroke="#ff9447"></path><path d="M389 215L358 264L427 291Z" fill="#ff9b44" stroke="#ff9b44"></path><path d="M591 180L578 181L599 232Z" fill="#ff9447" stroke="#ff9447"></path><path d="M599 232L578 181L512 210Z" fill="#ff9447" stroke="#ff9447"></path><path d="M678 296L665 297L696 318Z" fill="#ffa241" stroke="#ffa241"></path><path d="M634 206L591 180L599 232Z" fill="#ff6f61" stroke="#ff6f61"></path><path d="M634 206L599 232L653 289Z" fill="#ff9447" stroke="#ff9447"></path><path d="M578 181L566 149L513 164Z" fill="#fea83e" stroke="#fea83e"></path><path d="M311 335L410 375L402 304Z" fill="#ff8e4b" stroke="#ff8e4b"></path><path d="M461 507L490 458L459 455Z" fill="#ff884f" stroke="#ff884f"></path><path d="M594 439L646 411L579 383Z" fill="#ff7b58" stroke="#ff7b58"></path><path d="M710 263L634 206L653 289Z" fill="#ff8e4b" stroke="#ff8e4b"></path><path d="M696 318L665 297L624 339Z" fill="#ff8153" stroke="#ff8153"></path><path d="M665 297L678 296L653 289Z" fill="#ffa241" stroke="#ffa241"></path><path d="M581 445L574 480L594 439Z" fill="#ffa241" stroke="#ffa241"></path><path d="M594 439L646 466L646 411Z" fill="#ff6f61" stroke="#ff6f61"></path><path d="M507 496L574 480L557 448Z" fill="#ff8e4b" stroke="#ff8e4b"></path><path d="M507 496L533 433L490 458Z" fill="#ff7b58" stroke="#ff7b58"></path><path d="M461 507L459 455L372 495Z" fill="#ff8e4b" stroke="#ff8e4b"></path><path d="M461 507L507 496L490 458Z" fill="#ff884f" stroke="#ff884f"></path><path d="M389 215L364 205L358 264Z" fill="#fea83e" stroke="#fea83e"></path><path d="M389 215L445 204L396 141Z" fill="#ff6f61" stroke="#ff6f61"></path><path d="M585 139L566 149L591 180Z" fill="#ff9b44" stroke="#ff9b44"></path><path d="M591 180L566 149L578 181Z" fill="#fea83e" stroke="#fea83e"></path><path d="M428 135L445 204L468 192Z" fill="#ff7b58" stroke="#ff7b58"></path><path d="M703 333L696 318L624 339Z" fill="#ff8153" stroke="#ff8153"></path><path d="M678 296L710 263L653 289Z" fill="#ff755c" stroke="#ff755c"></path><path d="M428 135L468 192L513 164Z" fill="#ff884f" stroke="#ff884f"></path><path d="M364 205L324 233L358 264Z" fill="#fcaf3c" stroke="#fcaf3c"></path><path d="M302 328L311 335L358 264Z" fill="#ff8153" stroke="#ff8153"></path><path d="M358 264L311 335L402 304Z" fill="#ff8153" stroke="#ff8153"></path><path d="M372 495L459 455L404 424Z" fill="#ff6f61" stroke="#ff6f61"></path><path d="M653 552L646 466L574 480Z" fill="#fea83e" stroke="#fea83e"></path><path d="M639 137L585 139L591 180Z" fill="#ff7b58" stroke="#ff7b58"></path><path d="M438 103L428 135L513 164Z" fill="#ff9b44" stroke="#ff9b44"></path><path d="M438 103L513 164L555 73Z" fill="#ff8153" stroke="#ff8153"></path><path d="M646 466L690 384L646 411Z" fill="#ff6f61" stroke="#ff6f61"></path><path d="M646 411L690 384L624 339Z" fill="#ff9447" stroke="#ff9447"></path><path d="M357 192L324 233L364 205Z" fill="#ff9b44" stroke="#ff9b44"></path><path d="M690 384L703 333L624 339Z" fill="#ff9b44" stroke="#ff9b44"></path><path d="M324 233L302 328L358 264Z" fill="#fcaf3c" stroke="#fcaf3c"></path><path d="M297 424L343 455L363 407Z" fill="#fea83e" stroke="#fea83e"></path><path d="M561 547L574 480L507 496Z" fill="#ff9b44" stroke="#ff9b44"></path><path d="M574 480L646 466L594 439Z" fill="#ff8153" stroke="#ff8153"></path><path d="M428 135L396 141L445 204Z" fill="#ff9b44" stroke="#ff9b44"></path><path d="M357 192L338 157L324 233Z" fill="#ff755c" stroke="#ff755c"></path><path d="M690 384L710 339L703 333Z" fill="#ff755c" stroke="#ff755c"></path><path d="M703 333L710 339L696 318Z" fill="#fea83e" stroke="#fea83e"></path><path d="M696 318L710 263L678 296Z" fill="#ff9b44" stroke="#ff9b44"></path><path d="M297 424L363 407L311 335Z" fill="#ff9b44" stroke="#ff9b44"></path><path d="M363 407L343 455L404 424Z" fill="#ff8e4b" stroke="#ff8e4b"></path><path d="M763 276L710 263L696 318Z" fill="#ff6f61" stroke="#ff6f61"></path><path d="M634 206L639 137L591 180Z" fill="#ff8e4b" stroke="#ff8e4b"></path><path d="M456 563L481 536L461 507Z" fill="#ff755c" stroke="#ff755c"></path><path d="M461 507L481 536L507 496Z" fill="#fea83e" stroke="#fea83e"></path><path d="M343 455L372 495L404 424Z" fill="#ff9447" stroke="#ff9447"></path><path d="M555 73L513 164L566 149Z" fill="#ff884f" stroke="#ff884f"></path><path d="M428 135L438 103L396 141Z" fill="#fcaf3c" stroke="#fcaf3c"></path><path d="M688 106L639 137L720 122Z" fill="#ff9b44" stroke="#ff9b44"></path><path d="M585 139L555 73L566 149Z" fill="#ff8153" stroke="#ff8153"></path><path d="M396 141L338 157L357 192Z" fill="#fcaf3c" stroke="#fcaf3c"></path><path d="M324 233L265 306L302 328Z" fill="#ffa241" stroke="#ffa241"></path><path d="M356 106L338 157L396 141Z" fill="#ff8153" stroke="#ff8153"></path><path d="M259 392L297 424L311 335Z" fill="#ff8e4b" stroke="#ff8e4b"></path><path d="M343 455L338 486L372 495Z" fill="#ff755c" stroke="#ff755c"></path><path d="M368 524L384 517L372 495Z" fill="#ff9447" stroke="#ff9447"></path><path d="M372 495L384 517L461 507Z" fill="#ff9447" stroke="#ff9447"></path><path d="M297 424L338 486L343 455Z" fill="#ff8e4b" stroke="#ff8e4b"></path><path d="M643 93L637 122L688 106Z" fill="#fcaf3c" stroke="#fcaf3c"></path><path d="M639 137L637 122L585 139Z" fill="#ff9447" stroke="#ff9447"></path><path d="M481 536L561 547L507 496Z" fill="#fea83e" stroke="#fea83e"></path><path d="M690 384L730 392L710 339Z" fill="#fcaf3c" stroke="#fcaf3c"></path><path d="M710 339L763 276L696 318Z" fill="#ff8e4b" stroke="#ff8e4b"></path><path d="M756 444L730 392L690 384Z" fill="#ff9447" stroke="#ff9447"></path><path d="M761 399L730 392L762 409Z" fill="#ff755c" stroke="#ff755c"></path><path d="M273 239L265 306L324 233Z" fill="#ff8153" stroke="#ff8153"></path><path d="M302 328L259 392L311 335Z" fill="#fea83e" stroke="#fea83e"></path><path d="M286 156L273 239L324 233Z" fill="#ffa241" stroke="#ffa241"></path><path d="M273 239L258 297L265 306Z" fill="#fea83e" stroke="#fea83e"></path><path d="M227 328L259 392L302 328Z" fill="#ffa241" stroke="#ffa241"></path><path d="M354 515L368 524L372 495Z" fill="#ff9447" stroke="#ff9447"></path><path d="M384 517L456 563L461 507Z" fill="#ff7b58" stroke="#ff7b58"></path><path d="M481 536L563 573L561 547Z" fill="#fcaf3c" stroke="#fcaf3c"></path><path d="M354 537L354 515L307 513Z" fill="#ff8e4b" stroke="#ff8e4b"></path><path d="M338 486L354 515L372 495Z" fill="#fea83e" stroke="#fea83e"></path><path d="M643 93L555 73L585 139Z" fill="#fcaf3c" stroke="#fcaf3c"></path><path d="M730 392L748 371L710 339Z" fill="#fea83e" stroke="#fea83e"></path><path d="M387 600L456 563L384 517Z" fill="#ffa241" stroke="#ffa241"></path><path d="M227 328L302 328L265 306Z" fill="#ffa241" stroke="#ffa241"></path><path d="M297 424L307 513L338 486Z" fill="#ff7b58" stroke="#ff7b58"></path><path d="M354 84L356 106L383 60Z" fill="#ff8153" stroke="#ff8153"></path><path d="M438 103L356 106L396 141Z" fill="#ff8153" stroke="#ff8153"></path><path d="M338 157L286 156L324 233Z" fill="#ff8153" stroke="#ff8153"></path><path d="M273 239L244 289L258 297Z" fill="#ff884f" stroke="#ff884f"></path><path d="M258 297L227 328L265 306Z" fill="#ff9b44" stroke="#ff9b44"></path><path d="M551 600L563 573L481 536Z" fill="#ff755c" stroke="#ff755c"></path><path d="M561 547L653 552L574 480Z" fill="#ff8e4b" stroke="#ff8e4b"></path><path d="M748 371L763 276L710 339Z" fill="#ff755c" stroke="#ff755c"></path><path d="M720 122L639 137L634 206Z" fill="#ff755c" stroke="#ff755c"></path><path d="M688 106L637 122L639 137Z" fill="#ff7b58" stroke="#ff7b58"></path><path d="M637 122L643 93L585 139Z" fill="#ff7b58" stroke="#ff7b58"></path><path d="M354 515L354 537L368 524Z" fill="#ff9b44" stroke="#ff9b44"></path><path d="M368 524L387 600L384 517Z" fill="#fea83e" stroke="#fea83e"></path><path d="M307 513L354 515L338 486Z" fill="#ff9b44" stroke="#ff9b44"></path><path d="M643 93L553 54L555 73Z" fill="#ff7b58" stroke="#ff7b58"></path><path d="M555 73L489 33L438 103Z" fill="#ff755c" stroke="#ff755c"></path><path d="M763 276L765 257L710 263Z" fill="#fcaf3c" stroke="#fcaf3c"></path><path d="M730 392L761 399L748 371Z" fill="#fea83e" stroke="#fea83e"></path><path d="M748 371L806 323L763 276Z" fill="#ffa241" stroke="#ffa241"></path><path d="M763 276L780 240L765 257Z" fill="#fcaf3c" stroke="#fcaf3c"></path><path d="M762 409L730 392L756 444Z" fill="#ff8153" stroke="#ff8153"></path><path d="M293 139L286 156L338 157Z" fill="#ff755c" stroke="#ff755c"></path><path d="M273 239L210 210L244 289Z" fill="#ff7b58" stroke="#ff7b58"></path><path d="M756 444L690 384L646 466Z" fill="#ff6f61" stroke="#ff6f61"></path><path d="M826 232L780 240L763 276Z" fill="#ff755c" stroke="#ff755c"></path><path d="M356 106L293 139L338 157Z" fill="#ff6f61" stroke="#ff6f61"></path><path d="M244 289L227 328L258 297Z" fill="#ff9b44" stroke="#ff9b44"></path><path d="M203 347L227 328L170 330Z" fill="#ffa241" stroke="#ffa241"></path><path d="M383 60L356 106L438 103Z" fill="#ffa241" stroke="#ffa241"></path><path d="M356 106L354 84L293 139Z" fill="#fcaf3c" stroke="#fcaf3c"></path><path d="M250 433L297 424L259 392Z" fill="#ffa241" stroke="#ffa241"></path><path d="M250 433L307 513L297 424Z" fill="#ff755c" stroke="#ff755c"></path><path d="M627 581L653 552L561 547Z" fill="#ff884f" stroke="#ff884f"></path><path d="M573 0L552 43L553 54Z" fill="#ffa241" stroke="#ffa241"></path><path d="M553 54L489 33L555 73Z" fill="#fea83e" stroke="#fea83e"></path><path d="M216 445L250 433L259 392Z" fill="#ff8153" stroke="#ff8153"></path><path d="M293 139L285 144L286 156Z" fill="#ff8e4b" stroke="#ff8e4b"></path><path d="M286 156L228 194L273 239Z" fill="#ff7b58" stroke="#ff7b58"></path><path d="M287 138L285 144L293 139Z" fill="#ff884f" stroke="#ff884f"></path><path d="M720 122L634 206L742 136Z" fill="#fcaf3c" stroke="#fcaf3c"></path><path d="M573 0L563 2L552 43Z" fill="#ff7b58" stroke="#ff7b58"></path><path d="M263 117L287 138L293 139Z" fill="#ff755c" stroke="#ff755c"></path><path d="M714 511L756 444L646 466Z" fill="#ff9b44" stroke="#ff9b44"></path><path d="M431 -4L383 60L438 103Z" fill="#fcaf3c" stroke="#fcaf3c"></path><path d="M263 117L285 144L287 138Z" fill="#ff7b58" stroke="#ff7b58"></path><path d="M552 43L489 33L553 54Z" fill="#ff8153" stroke="#ff8153"></path><path d="M653 552L714 511L646 466Z" fill="#fea83e" stroke="#fea83e"></path><path d="M456 563L551 600L481 536Z" fill="#ff8e4b" stroke="#ff8e4b"></path><path d="M563 573L627 581L561 547Z" fill="#ff9b44" stroke="#ff9b44"></path><path d="M387 600L551 600L456 563Z" fill="#ff8153" stroke="#ff8153"></path><path d="M806 323L748 371L828 365Z" fill="#ff884f" stroke="#ff884f"></path><path d="M765 257L780 240L710 263Z" fill="#ffa241" stroke="#ffa241"></path><path d="M551 600L561 600L563 573Z" fill="#ff9b44" stroke="#ff9b44"></path><path d="M561 600L627 581L563 573Z" fill="#ff755c" stroke="#ff755c"></path><path d="M653 552L716 593L714 511Z" fill="#ff8e4b" stroke="#ff8e4b"></path><path d="M742 136L634 206L710 263Z" fill="#fcaf3c" stroke="#fcaf3c"></path><path d="M727 99L682 80L688 106Z" fill="#ff7b58" stroke="#ff7b58"></path><path d="M688 106L682 80L643 93Z" fill="#ff755c" stroke="#ff755c"></path><path d="M789 212L742 136L710 263Z" fill="#fea83e" stroke="#fea83e"></path><path d="M720 122L727 99L688 106Z" fill="#ffa241" stroke="#ffa241"></path><path d="M246 157L286 156L285 144Z" fill="#ffa241" stroke="#ffa241"></path><path d="M246 157L228 194L286 156Z" fill="#ff6f61" stroke="#ff6f61"></path><path d="M183 258L227 328L244 289Z" fill="#ff9447" stroke="#ff9447"></path><path d="M227 328L203 347L259 392Z" fill="#fcaf3c" stroke="#fcaf3c"></path><path d="M815 415L761 399L762 409Z" fill="#ff8e4b" stroke="#ff8e4b"></path><path d="M828 365L748 371L761 399Z" fill="#ff8e4b" stroke="#ff8e4b"></path><path d="M263 117L246 157L285 144Z" fill="#ff8e4b" stroke="#ff8e4b"></path><path d="M263 117L293 139L323 49Z" fill="#ffa241" stroke="#ffa241"></path><path d="M780 240L789 212L710 263Z" fill="#ff884f" stroke="#ff884f"></path><path d="M826 232L789 212L780 240Z" fill="#ff8e4b" stroke="#ff8e4b"></path><path d="M374 600L387 600L354 537Z" fill="#ff884f" stroke="#ff884f"></path><path d="M354 537L387 600L368 524Z" fill="#ff755c" stroke="#ff755c"></path><path d="M350 600L374 600L354 537Z" fill="#ff9b44" stroke="#ff9b44"></path><path d="M561 600L634 600L627 581Z" fill="#ff6f61" stroke="#ff6f61"></path><path d="M627 581L651 600L653 552Z" fill="#ff8e4b" stroke="#ff8e4b"></path><path d="M748 109L720 122L742 136Z" fill="#ff884f" stroke="#ff884f"></path><path d="M748 109L727 99L720 122Z" fill="#ff7b58" stroke="#ff7b58"></path><path d="M186 199L210 210L228 194Z" fill="#ff7b58" stroke="#ff7b58"></path><path d="M228 194L210 210L273 239Z" fill="#ff8153" stroke="#ff8153"></path><path d="M323 49L293 139L354 84Z" fill="#fcaf3c" stroke="#fcaf3c"></path><path d="M246 157L186 199L228 194Z" fill="#ff884f" stroke="#ff884f"></path><path d="M250 433L238 500L307 513Z" fill="#ff8153" stroke="#ff8153"></path><path d="M324 600L350 600L354 537Z" fill="#ff6f61" stroke="#ff6f61"></path><path d="M203 347L216 445L259 392Z" fill="#ff7b58" stroke="#ff7b58"></path><path d="M714 511L764 497L756 444Z" fill="#ff9b44" stroke="#ff9b44"></path><path d="M807 443L815 415L762 409Z" fill="#ff8153" stroke="#ff8153"></path><path d="M755 522L764 497L714 511Z" fill="#ff9b44" stroke="#ff9b44"></path><path d="M555 0L519 0L552 43Z" fill="#ff7b58" stroke="#ff7b58"></path><path d="M552 43L519 0L489 33Z" fill="#ff7b58" stroke="#ff7b58"></path><path d="M489 33L431 -4L438 103Z" fill="#ff884f" stroke="#ff884f"></path><path d="M553 54L643 93L573 0Z" fill="#ff6f61" stroke="#ff6f61"></path><path d="M634 600L651 600L627 581Z" fill="#ff8e4b" stroke="#ff8e4b"></path><path d="M519 0L468 0L489 33Z" fill="#ff755c" stroke="#ff755c"></path><path d="M383 60L323 49L354 84Z" fill="#ff6f61" stroke="#ff6f61"></path><path d="M573 0L643 93L705 0Z" fill="#ff8153" stroke="#ff8153"></path><path d="M771 101L748 109L742 136Z" fill="#ff755c" stroke="#ff755c"></path><path d="M705 0L643 93L682 80Z" fill="#ff7b58" stroke="#ff7b58"></path><path d="M563 2L555 0L552 43Z" fill="#ff884f" stroke="#ff884f"></path><path d="M324 600L354 537L307 513Z" fill="#ff9b44" stroke="#ff9b44"></path><path d="M216 445L238 500L250 433Z" fill="#ff6f61" stroke="#ff6f61"></path><path d="M378 0L323 49L383 60Z" fill="#ff884f" stroke="#ff884f"></path><path d="M716 593L755 522L714 511Z" fill="#fcaf3c" stroke="#fcaf3c"></path><path d="M705 0L682 80L734 0Z" fill="#ff884f" stroke="#ff884f"></path><path d="M563 2L573 0L555 0Z" fill="#ff8e4b" stroke="#ff8e4b"></path><path d="M651 600L665 600L653 552Z" fill="#ff884f" stroke="#ff884f"></path><path d="M210 210L183 258L244 289Z" fill="#ff884f" stroke="#ff884f"></path><path d="M203 347L175 356L216 445Z" fill="#ff6f61" stroke="#ff6f61"></path><path d="M807 443L762 409L756 444Z" fill="#ff8e4b" stroke="#ff8e4b"></path><path d="M807 443L756 444L764 497Z" fill="#ff9b44" stroke="#ff9b44"></path><path d="M815 415L828 365L761 399Z" fill="#ff6f61" stroke="#ff6f61"></path><path d="M806 323L826 232L763 276Z" fill="#ff7b58" stroke="#ff7b58"></path><path d="M790 503L807 443L764 497Z" fill="#ff7b58" stroke="#ff7b58"></path><path d="M439 -12L431 -4L468 0Z" fill="#ff8153" stroke="#ff8153"></path><path d="M468 0L431 -4L489 33Z" fill="#ff755c" stroke="#ff755c"></path><path d="M439 -12L468 0L519 0Z" fill="#ff6f61" stroke="#ff6f61"></path><path d="M439 -12L519 0L555 0Z" fill="#ffa241" stroke="#ffa241"></path><path d="M170 330L175 356L203 347Z" fill="#ff7b58" stroke="#ff7b58"></path><path d="M216 445L209 485L238 500Z" fill="#ff755c" stroke="#ff755c"></path><path d="M866 264L826 232L806 323Z" fill="#ff7b58" stroke="#ff7b58"></path><path d="M789 212L810 174L742 136Z" fill="#ff884f" stroke="#ff884f"></path><path d="M183 258L170 330L227 328Z" fill="#ff7b58" stroke="#ff7b58"></path><path d="M265 600L324 600L307 513Z" fill="#ff7b58" stroke="#ff7b58"></path><path d="M573 0L439 -12L555 0Z" fill="#ff8e4b" stroke="#ff8e4b"></path><path d="M431 -4L378 0L383 60Z" fill="#ff6f61" stroke="#ff6f61"></path><path d="M812 176L810 174L789 212Z" fill="#ff9b44" stroke="#ff9b44"></path><path d="M206 109L186 199L246 157Z" fill="#ff755c" stroke="#ff755c"></path><path d="M210 210L186 199L183 258Z" fill="#ff8153" stroke="#ff8153"></path><path d="M183 258L129 293L170 330Z" fill="#ff6f61" stroke="#ff6f61"></path><path d="M206 109L246 157L263 117Z" fill="#ff8153" stroke="#ff8153"></path><path d="M190 451L209 485L216 445Z" fill="#fea83e" stroke="#fea83e"></path><path d="M238 500L220 542L307 513Z" fill="#ff6f61" stroke="#ff6f61"></path><path d="M826 232L812 176L789 212Z" fill="#ff8e4b" stroke="#ff8e4b"></path><path d="M810 174L771 101L742 136Z" fill="#fcaf3c" stroke="#fcaf3c"></path><path d="M175 356L190 451L216 445Z" fill="#ff755c" stroke="#ff755c"></path><path d="M163 458L190 451L151 439Z" fill="#ff8153" stroke="#ff8153"></path><path d="M828 510L790 503L833 565Z" fill="#ffa241" stroke="#ffa241"></path><path d="M755 522L790 503L764 497Z" fill="#ff755c" stroke="#ff755c"></path><path d="M875 404L828 365L815 415Z" fill="#ffa241" stroke="#ffa241"></path><path d="M439 -12L378 0L431 -4Z" fill="#ff755c" stroke="#ff755c"></path><path d="M835 127L771 101L810 174Z" fill="#ffa241" stroke="#ffa241"></path><path d="M748 109L771 101L727 99Z" fill="#ff9b44" stroke="#ff9b44"></path><path d="M665 600L716 593L653 552Z" fill="#ff9b44" stroke="#ff9b44"></path><path d="M186 199L158 253L183 258Z" fill="#ff9b44" stroke="#ff9b44"></path><path d="M185 513L238 500L209 485Z" fill="#ff6f61" stroke="#ff6f61"></path><path d="M185 513L220 542L238 500Z" fill="#fcaf3c" stroke="#fcaf3c"></path><path d="M210 68L206 109L263 117Z" fill="#ff7b58" stroke="#ff7b58"></path><path d="M83 246L125 290L158 253Z" fill="#ff8153" stroke="#ff8153"></path><path d="M210 68L263 117L323 49Z" fill="#fcaf3c" stroke="#fcaf3c"></path><path d="M900 303L866 264L806 323Z" fill="#ff9b44" stroke="#ff9b44"></path><path d="M826 232L841 167L812 176Z" fill="#ff7b58" stroke="#ff7b58"></path><path d="M812 176L841 167L810 174Z" fill="#ff884f" stroke="#ff884f"></path><path d="M900 303L806 323L828 365Z" fill="#ffa241" stroke="#ffa241"></path><path d="M875 404L815 415L807 443Z" fill="#ff8e4b" stroke="#ff8e4b"></path><path d="M147 425L190 451L175 356Z" fill="#ff9b44" stroke="#ff9b44"></path><path d="M190 451L174 494L209 485Z" fill="#ff7b58" stroke="#ff7b58"></path><path d="M147 425L175 356L117 389Z" fill="#ffa241" stroke="#ffa241"></path><path d="M439 -12L316 0L378 0Z" fill="#fcaf3c" stroke="#fcaf3c"></path><path d="M378 0L316 0L323 49Z" fill="#ff7b58" stroke="#ff7b58"></path><path d="M900 204L841 167L826 232Z" fill="#fea83e" stroke="#fea83e"></path><path d="M220 542L265 600L307 513Z" fill="#ff6f61" stroke="#ff6f61"></path><path d="M117 389L175 356L170 330Z" fill="#ff9447" stroke="#ff9447"></path><path d="M147 425L151 439L190 451Z" fill="#ff9b44" stroke="#ff9b44"></path><path d="M174 494L190 451L163 458Z" fill="#ff6f61" stroke="#ff6f61"></path><path d="M174 494L185 513L209 485Z" fill="#ff9b44" stroke="#ff9b44"></path><path d="M220 542L214 600L265 600Z" fill="#fcaf3c" stroke="#fcaf3c"></path><path d="M125 502L174 494L163 458Z" fill="#fea83e" stroke="#fea83e"></path><path d="M125 290L129 293L158 253Z" fill="#fea83e" stroke="#fea83e"></path><path d="M158 253L129 293L183 258Z" fill="#ff884f" stroke="#ff884f"></path><path d="M734 0L727 99L752 0Z" fill="#fea83e" stroke="#fea83e"></path><path d="M734 0L682 80L727 99Z" fill="#ff6f61" stroke="#ff6f61"></path><path d="M573 0L705 0L439 -12Z" fill="#fea83e" stroke="#fea83e"></path><path d="M833 565L790 503L755 522Z" fill="#ff8153" stroke="#ff8153"></path><path d="M790 503L828 510L807 443Z" fill="#ffa241" stroke="#ffa241"></path><path d="M101 200L158 253L186 199Z" fill="#ff7b58" stroke="#ff7b58"></path><path d="M129 293L117 389L170 330Z" fill="#ffa241" stroke="#ffa241"></path><path d="M900 431L875 404L807 443Z" fill="#ff6f61" stroke="#ff6f61"></path><path d="M849 115L835 127L841 167Z" fill="#ff6f61" stroke="#ff6f61"></path><path d="M841 167L835 127L810 174Z" fill="#ff8e4b" stroke="#ff8e4b"></path><path d="M262 0L210 68L323 49Z" fill="#ffa241" stroke="#ffa241"></path><path d="M206 109L158 96L186 199Z" fill="#ff755c" stroke="#ff755c"></path><path d="M439 -12L282 0L316 0Z" fill="#ff6f61" stroke="#ff6f61"></path><path d="M316 0L282 0L323 49Z" fill="#ff6f61" stroke="#ff6f61"></path><path d="M835 127L820 92L771 101Z" fill="#ffa241" stroke="#ffa241"></path><path d="M752 0L727 99L771 101Z" fill="#ff8e4b" stroke="#ff8e4b"></path><path d="M705 0L734 0L439 -12Z" fill="#ff8153" stroke="#ff8153"></path><path d="M125 290L117 389L129 293Z" fill="#ff8153" stroke="#ff8153"></path><path d="M58 489L125 502L151 439Z" fill="#ff8153" stroke="#ff8153"></path><path d="M151 439L125 502L163 458Z" fill="#ff8e4b" stroke="#ff8e4b"></path><path d="M900 357L900 303L828 365Z" fill="#fcaf3c" stroke="#fcaf3c"></path><path d="M866 264L900 204L826 232Z" fill="#ff9447" stroke="#ff9447"></path><path d="M900 303L900 292L866 264Z" fill="#ff6f61" stroke="#ff6f61"></path><path d="M665 600L783 600L716 593Z" fill="#ff8153" stroke="#ff8153"></path><path d="M716 593L783 600L755 522Z" fill="#ff8153" stroke="#ff8153"></path><path d="M900 407L900 357L875 404Z" fill="#ff9b44" stroke="#ff9b44"></path><path d="M875 404L900 357L828 365Z" fill="#ff8153" stroke="#ff8153"></path><path d="M439 -12L262 0L282 0Z" fill="#ff6f61" stroke="#ff6f61"></path><path d="M282 0L262 0L323 49Z" fill="#ff6f61" stroke="#ff6f61"></path><path d="M835 127L849 115L820 92Z" fill="#ff884f" stroke="#ff884f"></path><path d="M800 0L752 0L771 101Z" fill="#fea83e" stroke="#fea83e"></path><path d="M900 150L849 115L841 167Z" fill="#ff8153" stroke="#ff8153"></path><path d="M800 0L771 101L820 92Z" fill="#ff755c" stroke="#ff755c"></path><path d="M734 0L752 0L439 -12Z" fill="#ff8e4b" stroke="#ff8e4b"></path><path d="M125 502L185 513L174 494Z" fill="#fea83e" stroke="#fea83e"></path><path d="M177 600L220 542L185 513Z" fill="#ffa241" stroke="#ffa241"></path><path d="M177 600L214 600L220 542Z" fill="#ff8e4b" stroke="#ff8e4b"></path><path d="M900 431L900 407L875 404Z" fill="#ff9b44" stroke="#ff9b44"></path><path d="M900 431L807 443L900 486Z" fill="#fcaf3c" stroke="#fcaf3c"></path><path d="M783 600L833 565L755 522Z" fill="#ff8153" stroke="#ff8153"></path><path d="M187 56L158 96L210 68Z" fill="#ff755c" stroke="#ff755c"></path><path d="M210 68L158 96L206 109Z" fill="#ff884f" stroke="#ff884f"></path><path d="M212 0L187 56L210 68Z" fill="#fea83e" stroke="#fea83e"></path><path d="M796 600L833 565L783 600Z" fill="#ff8e4b" stroke="#ff8e4b"></path><path d="M900 292L900 204L866 264Z" fill="#ff9447" stroke="#ff9447"></path><path d="M900 486L807 443L828 510Z" fill="#ff7b58" stroke="#ff7b58"></path><path d="M796 600L836 566L833 565Z" fill="#ff9b44" stroke="#ff9b44"></path><path d="M833 565L836 566L828 510Z" fill="#ff9447" stroke="#ff9447"></path><path d="M104 113L101 200L186 199Z" fill="#ff8e4b" stroke="#ff8e4b"></path><path d="M125 290L69 278L117 389Z" fill="#ff755c" stroke="#ff755c"></path><path d="M58 489L151 439L147 425Z" fill="#ff9447" stroke="#ff9447"></path><path d="M88 545L125 502L71 527Z" fill="#ff9447" stroke="#ff9447"></path><path d="M900 303L908 190L900 292Z" fill="#ff6f61" stroke="#ff6f61"></path><path d="M900 292L908 190L900 204Z" fill="#ff9447" stroke="#ff9447"></path><path d="M900 204L900 158L841 167Z" fill="#ffa241" stroke="#ffa241"></path><path d="M900 357L908 190L900 303Z" fill="#ff9b44" stroke="#ff9b44"></path><path d="M900 407L908 190L900 357Z" fill="#ff9b44" stroke="#ff9b44"></path><path d="M900 431L908 190L900 407Z" fill="#fea83e" stroke="#fea83e"></path><path d="M101 200L83 246L158 253Z" fill="#ff9b44" stroke="#ff9b44"></path><path d="M908 190L900 158L900 204Z" fill="#ff755c" stroke="#ff755c"></path><path d="M855 0L800 0L820 92Z" fill="#ff8e4b" stroke="#ff8e4b"></path><path d="M908 190L900 150L900 158Z" fill="#ff6f61" stroke="#ff6f61"></path><path d="M900 158L900 150L841 167Z" fill="#ff9b44" stroke="#ff9b44"></path><path d="M900 539L900 486L828 510Z" fill="#ff8153" stroke="#ff8153"></path><path d="M900 431L900 486L908 190Z" fill="#ff6f61" stroke="#ff6f61"></path><path d="M439 -12L212 0L262 0Z" fill="#ffa241" stroke="#ffa241"></path><path d="M262 0L212 0L210 68Z" fill="#ff6f61" stroke="#ff6f61"></path><path d="M100 71L104 113L158 96Z" fill="#ffa241" stroke="#ffa241"></path><path d="M125 502L177 600L185 513Z" fill="#ff8153" stroke="#ff8153"></path><path d="M900 62L820 92L849 115Z" fill="#ff9447" stroke="#ff9447"></path><path d="M752 0L800 0L439 -12Z" fill="#ff8153" stroke="#ff8153"></path><path d="M439 -12L205 0L212 0Z" fill="#ff8153" stroke="#ff8153"></path><path d="M212 0L205 0L187 56Z" fill="#ff9447" stroke="#ff9447"></path><path d="M54 259L73 245L59 202Z" fill="#ff755c" stroke="#ff755c"></path><path d="M73 245L69 278L83 246Z" fill="#ff884f" stroke="#ff884f"></path><path d="M83 246L69 278L125 290Z" fill="#ff755c" stroke="#ff755c"></path><path d="M104 113L186 199L158 96Z" fill="#ff9447" stroke="#ff9447"></path><path d="M59 202L73 245L83 246Z" fill="#fcaf3c" stroke="#fcaf3c"></path><path d="M100 71L158 96L187 56Z" fill="#ff7b58" stroke="#ff7b58"></path><path d="M59 202L83 246L101 200Z" fill="#ff8e4b" stroke="#ff8e4b"></path><path d="M73 245L54 259L69 278Z" fill="#ffa241" stroke="#ffa241"></path><path d="M58 489L147 425L117 389Z" fill="#ff884f" stroke="#ff884f"></path><path d="M877 600L900 539L836 566Z" fill="#ff8e4b" stroke="#ff8e4b"></path><path d="M836 566L900 539L828 510Z" fill="#ff9447" stroke="#ff9447"></path><path d="M900 486L900 539L908 190Z" fill="#fea83e" stroke="#fea83e"></path><path d="M44 136L59 202L101 200Z" fill="#ff8153" stroke="#ff8153"></path><path d="M796 600L877 600L836 566Z" fill="#ffa241" stroke="#ffa241"></path><path d="M908 190L900 62L900 150Z" fill="#fcaf3c" stroke="#fcaf3c"></path><path d="M900 150L900 62L849 115Z" fill="#ff8153" stroke="#ff8153"></path><path d="M131 0L100 71L187 56Z" fill="#ff6f61" stroke="#ff6f61"></path><path d="M104 113L44 136L101 200Z" fill="#ff7b58" stroke="#ff7b58"></path><path d="M900 62L855 0L820 92Z" fill="#ff755c" stroke="#ff755c"></path><path d="M800 0L855 0L439 -12Z" fill="#fea83e" stroke="#fea83e"></path><path d="M58 489L117 389L28 454Z" fill="#fcaf3c" stroke="#fcaf3c"></path><path d="M125 502L88 545L177 600Z" fill="#fea83e" stroke="#fea83e"></path><path d="M27 365L117 389L69 278Z" fill="#ff755c" stroke="#ff755c"></path><path d="M0 273L69 278L54 259Z" fill="#ff9447" stroke="#ff9447"></path><path d="M0 273L27 365L69 278Z" fill="#ff7b58" stroke="#ff7b58"></path><path d="M58 489L71 527L125 502Z" fill="#ff755c" stroke="#ff755c"></path><path d="M877 600L900 600L900 539Z" fill="#ff884f" stroke="#ff884f"></path><path d="M900 539L900 600L908 190Z" fill="#ff7b58" stroke="#ff7b58"></path><path d="M28 454L47 491L58 489Z" fill="#ff884f" stroke="#ff884f"></path><path d="M58 489L47 491L71 527Z" fill="#fea83e" stroke="#fea83e"></path><path d="M205 0L131 0L187 56Z" fill="#ff8153" stroke="#ff8153"></path><path d="M439 -12L131 0L205 0Z" fill="#ff755c" stroke="#ff755c"></path><path d="M61 97L104 113L100 71Z" fill="#ff9b44" stroke="#ff9b44"></path><path d="M61 97L44 136L104 113Z" fill="#ff755c" stroke="#ff755c"></path><path d="M0 249L0 273L54 259Z" fill="#fea83e" stroke="#fea83e"></path><path d="M70 600L88 545L33 548Z" fill="#fea83e" stroke="#fea83e"></path><path d="M70 600L98 600L88 545Z" fill="#ff6f61" stroke="#ff6f61"></path><path d="M88 545L98 600L177 600Z" fill="#ff7b58" stroke="#ff7b58"></path><path d="M62 84L61 97L100 71Z" fill="#ff8e4b" stroke="#ff8e4b"></path><path d="M27 365L28 454L117 389Z" fill="#ff8e4b" stroke="#ff8e4b"></path><path d="M33 548L88 545L71 527Z" fill="#ff884f" stroke="#ff884f"></path><path d="M84 33L62 84L100 71Z" fill="#ff9b44" stroke="#ff9b44"></path><path d="M61 97L32 111L44 136Z" fill="#ff8153" stroke="#ff8153"></path><path d="M0 249L54 259L59 202Z" fill="#ff9b44" stroke="#ff9b44"></path><path d="M27 365L0 401L28 454Z" fill="#ff9447" stroke="#ff9447"></path><path d="M131 0L84 33L100 71Z" fill="#ff9447" stroke="#ff9447"></path><path d="M908 190L900 0L900 62Z" fill="#fcaf3c" stroke="#fcaf3c"></path><path d="M900 62L900 0L855 0Z" fill="#fea83e" stroke="#fea83e"></path><path d="M855 0L900 0L439 -12Z" fill="#ff755c" stroke="#ff755c"></path><path d="M0 162L0 249L59 202Z" fill="#fcaf3c" stroke="#fcaf3c"></path><path d="M0 162L59 202L44 136Z" fill="#ff9b44" stroke="#ff9b44"></path><path d="M0 273L0 391L27 365Z" fill="#ff6f61" stroke="#ff6f61"></path><path d="M0 391L0 400L27 365Z" fill="#fcaf3c" stroke="#fcaf3c"></path><path d="M33 548L71 527L47 491Z" fill="#fcaf3c" stroke="#fcaf3c"></path><path d="M0 400L0 401L27 365Z" fill="#ffa241" stroke="#ffa241"></path><path d="M0 54L32 111L62 84Z" fill="#ff6f61" stroke="#ff6f61"></path><path d="M62 84L32 111L61 97Z" fill="#ff8153" stroke="#ff8153"></path><path d="M0 451L47 491L28 454Z" fill="#ffa241" stroke="#ffa241"></path><path d="M0 401L0 451L28 454Z" fill="#ffa241" stroke="#ffa241"></path><path d="M0 451L33 548L47 491Z" fill="#ff8153" stroke="#ff8153"></path><path d="M0 157L0 162L44 136Z" fill="#ff6f61" stroke="#ff6f61"></path><path d="M32 111L0 157L44 136Z" fill="#ffa241" stroke="#ffa241"></path><path d="M0 54L0 157L32 111Z" fill="#ff9b44" stroke="#ff9b44"></path><path d="M131 0L80 0L84 33Z" fill="#ff8e4b" stroke="#ff8e4b"></path><path d="M0 42L0 54L62 84Z" fill="#ff9b44" stroke="#ff9b44"></path><path d="M439 -12L80 0L131 0Z" fill="#ff9447" stroke="#ff9447"></path><path d="M0 42L62 84L84 33Z" fill="#ff9b44" stroke="#ff9b44"></path><path d="M0 451L0 589L33 548Z" fill="#ff884f" stroke="#ff884f"></path><path d="M33 548L0 589L70 600Z" fill="#ff7b58" stroke="#ff7b58"></path><path d="M80 0L0 42L84 33Z" fill="#ffa241" stroke="#ffa241"></path><path d="M0 589L0 600L70 600Z" fill="#ff755c" stroke="#ff755c"></path><path d="M439 -12L0 0L80 0Z" fill="#ff6f61" stroke="#ff6f61"></path><path d="M80 0L0 0L0 42Z" fill="#ff8e4b" stroke="#ff8e4b"></path></g></svg>